<?xml version="1.0" standalone="no"?>
<svg viewBox="0 0 200 200" xmlns="http://www.w3.org/2000/svg">
  <path fill="#4B3E7E" d="M44.7,-69.9C57.7,-70,67.9,-57.5,71.1,-43.8C74.4,-30,70.7,-15,68.7,-1.2C66.7,12.7,66.3,25.4,60.5,34.7C54.7,44.1,43.6,50.1,32.6,55.4C21.6,60.7,10.8,65.2,2.1,61.6C-6.7,58.1,-13.4,46.4,-26.8,42.5C-40.1,38.6,-60.2,42.5,-73,36.7C-85.9,30.9,-91.6,15.4,-90.7,0.5C-89.7,-14.4,-82.2,-28.7,-70.2,-36C-58.2,-43.3,-41.8,-43.6,-29.3,-43.9C-16.9,-44.1,-8.4,-44.4,3.7,-50.9C15.9,-57.3,31.7,-69.9,44.7,-69.9Z" transform="translate(100 100)" />
</svg>
